<?xml version="1.0" encoding="UTF-8"?>
<svg version="1.1" xmlns="http://www.w3.org/2000/svg" width="500" height="500">
<path d="M0 0 C5.07724388 1.61430318 7.8399833 6.3399088 10.484375 10.70703125 C13.02843929 17.1230373 9.92569363 25.5284479 8.47265625 31.9765625 C6.44786646 40.98828972 5.19454941 50.07214063 4.03515625 59.2265625 C3.94648285 59.9225354 3.85780945 60.6185083 3.76644897 61.33557129 C2.70166094 69.00797583 2.70166094 69.00797583 2.28515625 76.7265625 C2.94515625 76.7265625 3.60515625 76.7265625 4.28515625 76.7265625 C4.48753906 75.89898437 4.68992188 75.07140625 4.8984375 74.21875 C6.69200387 69.70199413 9.35784144 66.53694723 12.47265625 62.8515625 C13.3555835 61.78820679 13.3555835 61.78820679 14.25634766 60.70336914 C15.92292608 58.70269217 17.60134773 56.71274321 19.28515625 54.7265625 C20.00058594 53.87707031 20.71601563 53.02757812 21.453125 52.15234375 C23.03280279 50.31239868 24.64624137 48.51369965 26.28515625 46.7265625 C26.77371094 46.16195312 27.26226562 45.59734375 27.765625 45.015625 C35.59327207 36.47285956 48.63726795 27.56415671 60.390625 26.42578125 C65.57448585 26.3058137 69.52162214 26.55737575 74.28515625 28.7265625 C74.28515625 29.3865625 74.28515625 30.0465625 74.28515625 30.7265625 C74.84203125 30.9534375 75.39890625 31.1803125 75.97265625 31.4140625 C78.91419244 33.08358304 80.93379245 35.31332071 83.28515625 37.7265625 C83.94515625 38.0565625 84.60515625 38.3865625 85.28515625 38.7265625 C86.08877673 41.022621 86.69073194 43.34297117 87.30859375 45.6953125 C88.0949768 47.93245278 88.0949768 47.93245278 90.38671875 48.5078125 C91.32644531 48.61609375 91.32644531 48.61609375 92.28515625 48.7265625 C92.59453125 49.8196875 92.90390625 50.9128125 93.22265625 52.0390625 C93.86853522 54.28064244 94.54746795 56.5134976 95.28515625 58.7265625 C95.3243644 60.72617814 95.32958972 62.72705614 95.28515625 64.7265625 C94.62515625 64.7265625 93.96515625 64.7265625 93.28515625 64.7265625 C93.49140625 65.4071875 93.69765625 66.0878125 93.91015625 66.7890625 C95.19281136 76.83652756 88.00095683 90.19614668 82.703125 98.4765625 C80.62973222 101.76657419 78.96683447 105.22561421 77.28515625 108.7265625 C76.6203629 110.06083085 75.9541693 111.39440494 75.28515625 112.7265625 C74.62515625 112.7265625 73.96515625 112.7265625 73.28515625 112.7265625 C72.99640625 113.3040625 72.70765625 113.8815625 72.41015625 114.4765625 C72.03890625 115.2190625 71.66765625 115.9615625 71.28515625 116.7265625 C71.01445312 117.355625 70.74375 117.9846875 70.46484375 118.6328125 C69.0622389 121.1222039 67.44705276 122.61669565 65.28515625 124.4765625 C64.58390625 125.09015625 63.88265625 125.70375 63.16015625 126.3359375 C61.28515625 127.7265625 61.28515625 127.7265625 59.28515625 127.7265625 C59.28515625 128.7165625 59.28515625 129.7065625 59.28515625 130.7265625 C57.89599429 131.67525847 56.49894938 132.61426885 55.06640625 133.49609375 C51.74082767 135.79336843 49.06732356 138.81408291 46.28515625 141.7265625 C41.60430519 146.62017952 41.60430519 146.62017952 38.28515625 147.7265625 C38.28515625 148.3865625 38.28515625 149.0465625 38.28515625 149.7265625 C37.29515625 149.7265625 36.30515625 149.7265625 35.28515625 149.7265625 C35.05828125 150.3453125 34.83140625 150.9640625 34.59765625 151.6015625 C32.90099182 154.348543 31.23263914 154.59291523 28.28515625 155.7265625 C27.95515625 156.7165625 27.62515625 157.7065625 27.28515625 158.7265625 C25.5078125 160.33203125 25.5078125 160.33203125 23.34765625 161.9140625 C22.63738281 162.44386719 21.92710937 162.97367188 21.1953125 163.51953125 C19.28515625 164.7265625 19.28515625 164.7265625 17.28515625 164.7265625 C17.85420659 168.58735021 19.59915854 170.35613613 22.22265625 173.1640625 C27.34558525 179.20879242 30.45903728 185.80961783 33.65795898 193.02514648 C36.34855569 199.03899219 39.52073 204.32859289 43.28515625 209.7265625 C44.41721832 211.51377539 45.54348843 213.30469093 46.66015625 215.1015625 C49.80352167 220.08734792 53.22747151 224.8115601 56.78125 229.51171875 C58.28515625 231.7265625 58.28515625 231.7265625 58.28515625 233.7265625 C59.27515625 234.0565625 60.26515625 234.3865625 61.28515625 234.7265625 C60.95515625 235.3865625 60.62515625 236.0465625 60.28515625 236.7265625 C60.61515625 237.0565625 60.94515625 237.3865625 61.28515625 237.7265625 C62.5127372 239.48845027 63.72539704 241.25992243 64.93359375 243.03515625 C66.36004403 244.99585591 66.36004403 244.99585591 69.28515625 246.7265625 C69.61515625 247.4071875 69.94515625 248.0878125 70.28515625 248.7890625 C71.18213941 251.07999241 71.18213941 251.07999241 74.28515625 251.7265625 C74.61848958 253.05989583 74.95182292 254.39322917 75.28515625 255.7265625 C77.31436989 258.77038296 78.47695888 260.44463318 81.97265625 261.6640625 C82.73578125 262.0146875 83.49890625 262.3653125 84.28515625 262.7265625 C85.09765625 265.8515625 85.09765625 265.8515625 85.28515625 268.7265625 C85.88328125 268.7884375 86.48140625 268.8503125 87.09765625 268.9140625 C90.15839515 270.05090838 90.72155471 271.9392728 92.28515625 274.7265625 C93.27515625 275.3865625 94.26515625 276.0465625 95.28515625 276.7265625 C95.28515625 277.7165625 95.28515625 278.7065625 95.28515625 279.7265625 C95.94515625 279.7265625 96.60515625 279.7265625 97.28515625 279.7265625 C97.28515625 281.0465625 97.28515625 282.3665625 97.28515625 283.7265625 C98.60515625 284.0565625 99.92515625 284.3865625 101.28515625 284.7265625 C101.35943463 288.06908974 101.35062578 290.5301539 100.28515625 293.7265625 C97.64515625 293.3965625 95.00515625 293.0665625 92.28515625 292.7265625 C92.61515625 293.7165625 92.94515625 294.7065625 93.28515625 295.7265625 C94.93515625 296.0565625 96.58515625 296.3865625 98.28515625 296.7265625 C98.28515625 297.0565625 98.28515625 297.3865625 98.28515625 297.7265625 C75.98411157 296.43996377 55.67135434 278.4055955 40.28515625 263.7265625 C39.50398438 262.99824219 38.7228125 262.26992188 37.91796875 261.51953125 C19.21889989 243.58572677 6.54698858 220.23211113 -5.71484375 197.7265625 C-7.52908726 205.73493668 -8.46228863 213.75057393 -9.27734375 221.9140625 C-9.52754129 224.36599838 -9.77881019 226.81782521 -10.03125 229.26953125 C-10.14742676 230.40076416 -10.26360352 231.53199707 -10.38330078 232.69750977 C-10.646887 235.10569401 -10.94607328 237.49534673 -11.3046875 239.890625 C-11.79088624 242.77476801 -11.79088624 242.77476801 -11.71484375 245.9140625 C-11.71484375 248.46031094 -12.08686007 250.29312573 -12.71484375 252.7265625 C-12.75271276 254.39279889 -12.7611222 256.06053847 -12.71484375 257.7265625 C-13.37484375 258.0565625 -14.03484375 258.3865625 -14.71484375 258.7265625 C-14.38484375 260.3765625 -14.05484375 262.0265625 -13.71484375 263.7265625 C-14.37484375 263.7265625 -15.03484375 263.7265625 -15.71484375 263.7265625 C-15.71484375 264.3865625 -15.71484375 265.0465625 -15.71484375 265.7265625 C-15.05484375 266.0565625 -14.39484375 266.3865625 -13.71484375 266.7265625 C-13.71484375 268.0465625 -13.71484375 269.3665625 -13.71484375 270.7265625 C-14.51921875 270.8503125 -15.32359375 270.9740625 -16.15234375 271.1015625 C-16.99796875 271.3078125 -17.84359375 271.5140625 -18.71484375 271.7265625 C-19.04484375 272.3865625 -19.37484375 273.0465625 -19.71484375 273.7265625 C-21.77734375 274.8515625 -21.77734375 274.8515625 -23.71484375 275.7265625 C-23.71484375 276.3865625 -23.71484375 277.0465625 -23.71484375 277.7265625 C-25.36484375 277.7265625 -27.01484375 277.7265625 -28.71484375 277.7265625 C-28.71484375 278.3865625 -28.71484375 279.0465625 -28.71484375 279.7265625 C-31.27630945 282.02304899 -32.19451947 282.7265625 -35.71484375 282.7265625 C-35.38484375 284.0465625 -35.05484375 285.3665625 -34.71484375 286.7265625 C-35.37484375 286.7265625 -36.03484375 286.7265625 -36.71484375 286.7265625 C-36.71484375 287.3865625 -36.71484375 288.0465625 -36.71484375 288.7265625 C-36.05484375 289.0565625 -35.39484375 289.3865625 -34.71484375 289.7265625 C-37.84489869 290.71029405 -39.27746812 290.9140092 -42.33984375 289.6015625 C-44.95988589 287.53310818 -46.25922684 285.71440773 -47.71484375 282.7265625 C-47.71484375 282.0665625 -47.71484375 281.4065625 -47.71484375 280.7265625 C-48.37484375 280.7265625 -49.03484375 280.7265625 -49.71484375 280.7265625 C-48.07370154 200.01424871 -48.07370154 200.01424871 -43.71484375 160.7265625 C-43.62503235 159.91574219 -43.53522095 159.10492188 -43.44268799 158.26953125 C-38.63018099 115.4318081 -31.11132092 72.04228583 -20.08984375 30.3515625 C-19.82486084 29.34198486 -19.55987793 28.33240723 -19.28686523 27.29223633 C-11.57340352 -0.7342059 -11.57340352 -0.7342059 0 0 Z M64.28515625 58.7265625 C57.23504257 63.06390722 57.23504257 63.06390722 51.28515625 68.7265625 C51.28515625 69.3865625 51.28515625 70.0465625 51.28515625 70.7265625 C50.29515625 71.0565625 49.30515625 71.3865625 48.28515625 71.7265625 C45.87520259 74.36197268 45.87520259 74.36197268 45.28515625 77.7265625 C44.29515625 78.0565625 43.30515625 78.3865625 42.28515625 78.7265625 C40.57639165 80.10170791 40.57639165 80.10170791 39.28515625 81.7265625 C39.28515625 82.3865625 39.28515625 83.0465625 39.28515625 83.7265625 C38.62515625 83.7265625 37.96515625 83.7265625 37.28515625 83.7265625 C36.95515625 85.0465625 36.62515625 86.3665625 36.28515625 87.7265625 C35.66640625 87.7678125 35.04765625 87.8090625 34.41015625 87.8515625 C33.35828125 88.2846875 33.35828125 88.2846875 32.28515625 88.7265625 C30.98059065 91.72272196 30.98059065 91.72272196 30.28515625 94.7265625 C27.81015625 95.2215625 27.81015625 95.2215625 25.28515625 95.7265625 C24.95515625 97.0465625 24.62515625 98.3665625 24.28515625 99.7265625 C23.62515625 99.7265625 22.96515625 99.7265625 22.28515625 99.7265625 C17.10244434 105.84742535 13.00642152 112.65234832 9.28515625 119.7265625 C8.4544298 121.20719481 7.62106146 122.68634772 6.78515625 124.1640625 C-0.65658365 137.16760716 -0.65658365 137.16760716 -2.71484375 151.7265625 C14.57622061 150.49148647 27.40302591 135.80721788 38.28515625 123.7265625 C41.24905013 120.20636854 43.84027871 116.62206738 46.28515625 112.7265625 C46.8251123 111.87263916 46.8251123 111.87263916 47.37597656 111.00146484 C56.91645621 95.82052588 67.11750184 79.31561399 66.28515625 60.7265625 C65.29515625 59.7365625 65.29515625 59.7365625 64.28515625 58.7265625 Z M83.28515625 268.7265625 C84.28515625 270.7265625 84.28515625 270.7265625 84.28515625 270.7265625 Z M88.28515625 290.7265625 C88.28515625 291.3865625 88.28515625 292.0465625 88.28515625 292.7265625 C89.27515625 292.3965625 90.26515625 292.0665625 91.28515625 291.7265625 C90.29515625 291.3965625 89.30515625 291.0665625 88.28515625 290.7265625 Z " fill="#F6F6F6" transform="translate(157.71484375,59.2734375)"/>
<path d="M0 0 C0.74701172 0.07927734 1.49402344 0.15855469 2.26367188 0.24023438 C6.95435542 0.81267073 10.53297763 1.91489806 14.6875 4.3125 C14.97698647 9.90923839 14.92041136 13.5152767 11.6875 18.3125 C7.3931944 22.64741369 4.23410508 25.05352321 -2 25.6875 C-6.92672578 25.63285979 -10.67473313 23.55745636 -14.3125 20.3125 C-16.59896184 16.59328772 -16.77048187 13.66332781 -16.3125 9.3125 C-14.375 6.5625 -14.375 6.5625 -12.3125 4.3125 C-11.9825 3.3225 -11.6525 2.3325 -11.3125 1.3125 C-7.36229371 -1.32097086 -4.47901268 -0.58223359 0 0 Z M-6.3125 6.3125 C-6.6425 7.3025 -6.9725 8.2925 -7.3125 9.3125 C-6.6525 9.3125 -5.9925 9.3125 -5.3125 9.3125 C-5.6425 8.3225 -5.9725 7.3325 -6.3125 6.3125 Z " fill="#F4F3F3" transform="translate(311.3125,324.6875)"/>
<path d="M0 0 C0.66 0.33 1.32 0.66 2 1 C2 1.99 2 2.98 2 4 C2.598125 4.061875 3.19625 4.12375 3.8125 4.1875 C6.8732389 5.32434588 7.43639846 7.2127103 9 10 C9.99 10.66 10.98 11.32 12 12 C12 12.99 12 13.98 12 15 C12.66 15 13.32 15 14 15 C14 16.32 14 17.64 14 19 C15.32 19.33 16.64 19.66 18 20 C18.07427838 23.34252724 18.06546953 25.8035914 17 29 C14.36 28.67 11.72 28.34 9 28 C9.33 28.99 9.66 29.98 10 31 C11.65 31.33 13.3 31.66 15 32 C15 32.33 15 32.66 15 33 C7.8396184 32.58690106 1.25242093 30.56868948 -5 27 C-6.3515625 24.83203125 -6.3515625 24.83203125 -7 23 C-1.25 24.875 -1.25 24.875 1 26 C1 25.34 1 24.68 1 24 C1.99 24 2.98 24 4 24 C3.67 22.35 3.34 20.7 3 19 C3.99 19.33 4.98 19.66 6 20 C6 19.34 6 18.68 6 18 C5.01 17.67 4.02 17.34 3 17 C3 16.01 3 15.02 3 14 C3.66 14 4.32 14 5 14 C5 12.02 5 10.04 5 8 C3.35 8.33 1.7 8.66 0 9 C0 6.03 0 3.06 0 0 Z M5 26 C5 26.66 5 27.32 5 28 C5.99 27.67 6.98 27.34 8 27 C7.01 26.67 6.02 26.34 5 26 Z " fill="#F4F3F2" transform="translate(241,324)"/>
<path d="M0 0 C0.33 0 0.66 0 1 0 C2.42258812 3.82320557 3.24042276 6.91281305 3 11 C2.01 11.495 2.01 11.495 1 12 C1.33 13.65 1.66 15.3 2 17 C1.34 17 0.68 17 0 17 C0 17.66 0 18.32 0 19 C0.66 19.33 1.32 19.66 2 20 C2 21.32 2 22.64 2 24 C0.02 24.33 -1.96 24.66 -4 25 C-3.67 24.01 -3.34 23.02 -3 22 C-2.65772583 20.66893378 -2.32248257 19.33599921 -2 18 C-2.66 18 -3.32 18 -4 18 C-4 17.34 -4 16.68 -4 16 C-4.66 16 -5.32 16 -6 16 C-6.625 13.1875 -6.625 13.1875 -7 10 C-5 7 -5 7 -2.875 6.3125 C-2.25625 6.209375 -1.6375 6.10625 -1 6 C-0.67 4.02 -0.34 2.04 0 0 Z " fill="#F7F4F4" transform="translate(142,306)"/>
<path d="M0 0 C0.66 0.99 1.32 1.98 2 3 C0.75 6.4375 0.75 6.4375 -1 10 C-1.391875 10.804375 -1.78375 11.60875 -2.1875 12.4375 C-2.455625 12.953125 -2.72375 13.46875 -3 14 C-3.66 14 -4.32 14 -5 14 C-5.28875 14.5775 -5.5775 15.155 -5.875 15.75 C-6.24625 16.4925 -6.6175 17.235 -7 18 C-7.2475 18.66 -7.495 19.32 -7.75 20 C-9.56703091 22.90724945 -12.11135892 24.24169673 -15 26 C-15.33 24.68 -15.66 23.36 -16 22 C-15.236875 21.62875 -14.47375 21.2575 -13.6875 20.875 C-10.38545452 18.57124734 -9.29094187 16.79688785 -8 13 C-8.67993427 10.16924452 -8.67993427 10.16924452 -10 8 C-7 8 -7 8 -5 9 C-4.731875 8.2575 -4.46375 7.515 -4.1875 6.75 C-3.05770579 4.13363446 -1.79106798 2.19812889 0 0 Z " fill="#EBE8E9" transform="translate(236,158)"/>
<path d="M0 0 C0.66 0 1.32 0 2 0 C2 1.32 2 2.64 2 4 C3.32 4.33 4.64 4.66 6 5 C6.07427838 8.34252724 6.06546953 10.8035914 5 14 C3.35 14 1.7 14 0 14 C0 13.34 0 12.68 0 12 C-2.475 11.01 -2.475 11.01 -5 10 C-4.67 9.01 -4.34 8.02 -4 7 C-3.01 6.67 -2.02 6.34 -1 6 C-1.309375 5.071875 -1.309375 5.071875 -1.625 4.125 C-1.810625 3.073125 -1.810625 3.073125 -2 2 C-1.34 1.34 -0.68 0.68 0 0 Z " fill="#D8D1D1" transform="translate(253,339)"/>
<path d="M0 0 C5.75 1.875 5.75 1.875 8 3 C8 2.34 8 1.68 8 1 C9.32 1.33 10.64 1.66 12 2 C12 2.99 12 3.98 12 5 C13.65 5.33 15.3 5.66 17 6 C17 6.66 17 7.32 17 8 C19.475 8.495 19.475 8.495 22 9 C22 9.33 22 9.66 22 10 C14.8396184 9.58690106 8.25242093 7.56868948 2 4 C0.6484375 1.83203125 0.6484375 1.83203125 0 0 Z " fill="#E0D9D8" transform="translate(234,347)"/>
<path d="M0 0 C0.99 0.495 0.99 0.495 2 1 C2 1.99 2 2.98 2 4 C2.598125 4.061875 3.19625 4.12375 3.8125 4.1875 C6.8732389 5.32434588 7.43639846 7.2127103 9 10 C9.99 10.66 10.98 11.32 12 12 C11.67 12.99 11.34 13.98 11 15 C10.34 14.34 9.68 13.68 9 13 C7.68 13 6.36 13 5 13 C5 11.35 5 9.7 5 8 C3.35 8.33 1.7 8.66 0 9 C0 6.03 0 3.06 0 0 Z " fill="#C7C3C1" transform="translate(241,324)"/>
<path d="M0 0 C0.99 0.33 1.98 0.66 3 1 C2.34 1.66 1.68 2.32 1 3 C2.98 3.66 4.96 4.32 7 5 C6.67 6.32 6.34 7.64 6 9 C5.01 8.34 4.02 7.68 3 7 C2.01 7.33 1.02 7.66 0 8 C0 7.01 0 6.02 0 5 C-1.98 6.32 -3.96 7.64 -6 9 C-5.690625 8.401875 -5.38125 7.80375 -5.0625 7.1875 C-3.89790296 4.91043228 -3.89790296 4.91043228 -3 2 C-2.01 1.34 -1.02 0.68 0 0 Z " fill="#E4DFDF" transform="translate(303,324)"/>
<path d="M0 0 C0.66 0.99 1.32 1.98 2 3 C0.75 6.4375 0.75 6.4375 -1 10 C-1.391875 10.804375 -1.78375 11.60875 -2.1875 12.4375 C-2.455625 12.953125 -2.72375 13.46875 -3 14 C-3.66 14 -4.32 14 -5 14 C-5.96747771 10.887486 -6.25702664 9.51983845 -4.78515625 6.54296875 C-4.21667969 5.76566406 -3.64820313 4.98835937 -3.0625 4.1875 C-2.49660156 3.39730469 -1.93070313 2.60710937 -1.34765625 1.79296875 C-0.90292969 1.20128906 -0.45820313 0.60960937 0 0 Z " fill="#C9C8C8" transform="translate(236,158)"/>
<path d="M0 0 C-0.33 0.99 -0.66 1.98 -1 3 C-1 3.99 -1 4.98 -1 6 C-2.98 6 -4.96 6 -7 6 C-7.33 5.01 -7.66 4.02 -8 3 C-5.32528887 -1.0120667 -4.40750667 -1.322252 0 0 Z " fill="#EBE9EA" transform="translate(232,88)"/>
<path d="M0 0 C0.66 0 1.32 0 2 0 C1.32418477 6.08233706 0.26361972 12.01314152 -1 18 C-1.33 18 -1.66 18 -2 18 C-2.66 15.03 -3.32 12.06 -4 9 C-3.01 8.67 -2.02 8.34 -1 8 C-1.020625 6.865625 -1.04125 5.73125 -1.0625 4.5625 C-1 1 -1 1 0 0 Z " fill="#F1EFED" transform="translate(156,193)"/>
<path d="M0 0 C1.9375 0.125 1.9375 0.125 4 1 C5.375 3.3125 5.375 3.3125 6 6 C5.125 8.3125 5.125 8.3125 4 10 C-0.60921053 4.64736842 -0.60921053 4.64736842 -1 1 C-0.67 0.67 -0.34 0.34 0 0 Z " fill="#F0EFEE" transform="translate(159,265)"/>
<path d="M0 0 C2.95514876 2.75134539 5.1524809 5.39733775 7 9 C7 9.99 7 10.98 7 12 C6.01 12.33 5.02 12.66 4 13 C1.70620251 9.55930376 1 8.27709699 1 4 C0.7018576 2.65835921 0.37756808 1.32148827 0 0 Z " fill="#DBD8D5" transform="translate(165,274)"/>
<path d="M0 0 C0.33 0.66 0.66 1.32 1 2 C0.34 2 -0.32 2 -1 2 C-0.690625 3.1446875 -0.690625 3.1446875 -0.375 4.3125 C0 7 0 7 -2 10 C-2.66 9.34 -3.32 8.68 -4 8 C-4.66 8 -5.32 8 -6 8 C-5.42415568 5.61435923 -4.77772405 3.33317216 -4 1 C-1.9375 0.3125 -1.9375 0.3125 0 0 Z " fill="#E8E5E6" transform="translate(252,122)"/>
<path d="M0 0 C2.16874252 0.50603992 3.99967627 0.99983813 6 2 C6 2.66 6 3.32 6 4 C6.66 4.33 7.32 4.66 8 5 C8 6.32 8 7.64 8 9 C6.02 9.33 4.04 9.66 2 10 C2.33 9.01 2.66 8.02 3 7 C3.34227417 5.66893378 3.67751743 4.33599921 4 3 C3.34 3 2.68 3 2 3 C2 2.34 2 1.68 2 1 C1.34 0.67 0.68 0.34 0 0 Z " fill="#DAD4D5" transform="translate(136,321)"/>
<path d="M0 0 C0.66 0.66 1.32 1.32 2 2 C-0.25 4.5625 -0.25 4.5625 -3 7 C-5.3125 6.8125 -5.3125 6.8125 -7 6 C-7.33 6.66 -7.66 7.32 -8 8 C-7.67 6.02 -7.34 4.04 -7 2 C-4 1 -4 1 -1 2 C-0.67 1.34 -0.34 0.68 0 0 Z " fill="#EFEEED" transform="translate(145,88)"/>
<path d="M0 0 C1.39814132 0.09579435 2.7956797 0.21125644 4.1875 0.375 C4.1875 0.705 4.1875 1.035 4.1875 1.375 C1.5475 1.705 -1.0925 2.035 -3.8125 2.375 C-4.121875 3.4578125 -4.121875 3.4578125 -4.4375 4.5625 C-6.26498163 8.3005306 -8.51688806 9.86746917 -11.8125 12.375 C-10.05647303 5.67016974 -7.56212406 0 0 0 Z " fill="#E0DEDE" transform="translate(155.8125,59.625)"/>
<path d="M0 0 C0.66 0.66 1.32 1.32 2 2 C1.01 4.64 0.02 7.28 -1 10 C-1.33 9.34 -1.66 8.68 -2 8 C-3.32 8.33 -4.64 8.66 -6 9 C-5.625 7.0625 -5.625 7.0625 -5 5 C-4.34 4.67 -3.68 4.34 -3 4 C-3 3.34 -3 2.68 -3 2 C-2.01 1.34 -1.02 0.68 0 0 Z " fill="#E7E6E4" transform="translate(249,133)"/>
<path d="M0 0 C0.33 0.99 0.66 1.98 1 3 C2.65 3.33 4.3 3.66 6 4 C6 4.66 6 5.32 6 6 C7.65 6.33 9.3 6.66 11 7 C11 7.33 11 7.66 11 8 C9.741875 7.87625 8.48375 7.7525 7.1875 7.625 C6.12595703 7.52058594 6.12595703 7.52058594 5.04296875 7.4140625 C3 7 3 7 0 5 C-0.75 2.9375 -0.75 2.9375 -1 1 C-0.67 0.67 -0.34 0.34 0 0 Z " fill="#CECAC9" transform="translate(245,349)"/>
<path d="M0 0 C0.99 0 1.98 0 3 0 C4.75 2.375 4.75 2.375 6 5 C5.67 5.66 5.34 6.32 5 7 C4.01 7 3.02 7 2 7 C0.25 5.1875 0.25 5.1875 -1 3 C-0.67 2.01 -0.34 1.02 0 0 Z " fill="#F1EFEE" transform="translate(162,65)"/>
<path d="M0 0 C0.33 0.99 0.66 1.98 1 3 C-1.31 4.32 -3.62 5.64 -6 7 C-6.66 6.34 -7.32 5.68 -8 5 C-5.59563974 1.39345961 -4.05320393 1.14547068 0 0 Z " fill="#C6BDBD" transform="translate(184,215)"/>
<path d="M0 0 C0.66 0.33 1.32 0.66 2 1 C0.66667905 4.99996286 -1.4957827 5.83782337 -5 8 C-5.33 6.68 -5.66 5.36 -6 4 C-5.195625 3.525625 -4.39125 3.05125 -3.5625 2.5625 C-1.15246512 1.23099846 -1.15246512 1.23099846 0 0 Z " fill="#C9C2C4" transform="translate(226,176)"/>
<path d="M0 0 C1.37562854 1.28965176 2.70766393 2.62689293 4 4 C4 4.66 4 5.32 4 6 C4.99 6.33 5.98 6.66 7 7 C6.67 7.66 6.34 8.32 6 9 C3.69 7.02 1.38 5.04 -1 3 C-0.67 2.01 -0.34 1.02 0 0 Z " fill="#D1CCCB" transform="translate(212,287)"/>
<path d="M0 0 C0.66 0 1.32 0 2 0 C2.33 2.31 2.66 4.62 3 7 C1.68 6.67 0.36 6.34 -1 6 C-1.625 4.125 -1.625 4.125 -2 2 C-1.34 1.34 -0.68 0.68 0 0 Z " fill="#DFD9D8" transform="translate(253,339)"/>
<path d="M0 0 C0.33 0 0.66 0 1 0 C2.42258812 3.82320557 3.24042276 6.91281305 3 11 C1.68 10.67 0.36 10.34 -1 10 C-0.67 9.34 -0.34 8.68 0 8 C-0.33 7.67 -0.66 7.34 -1 7 C-0.71269945 4.66055264 -0.38063221 2.3260857 0 0 Z " fill="#D2C7C7" transform="translate(142,306)"/>
<path d="M0 0 C0.66 0.33 1.32 0.66 2 1 C2 3.64 2 6.28 2 9 C1.01 9 0.02 9 -1 9 C-1.09765625 2.84765625 -1.09765625 2.84765625 -1 1 C-0.67 0.67 -0.34 0.34 0 0 Z " fill="#E3E1E1" transform="translate(210,284)"/>
<path d="M0 0 C0.99 0.33 1.98 0.66 3 1 C2.67 2.32 2.34 3.64 2 5 C-0.875 5.125 -0.875 5.125 -4 5 C-4.66 4.34 -5.32 3.68 -6 3 C-5.195625 2.87625 -4.39125 2.7525 -3.5625 2.625 C-2.716875 2.41875 -1.87125 2.2125 -1 2 C-0.67 1.34 -0.34 0.68 0 0 Z " fill="#C3BCBB" transform="translate(256,343)"/>
<path d="M0 0 C0.66 0.33 1.32 0.66 2 1 C0.38405168 3.04119788 -1.2856382 5.04072937 -3 7 C-3.66 7 -4.32 7 -5 7 C-5 5.35 -5 3.7 -5 2 C-4.360625 1.855625 -3.72125 1.71125 -3.0625 1.5625 C-1.02454854 1.18992819 -1.02454854 1.18992819 0 0 Z " fill="#F0ECEC" transform="translate(300,332)"/>
<path d="M0 0 C0.66 0.33 1.32 0.66 2 1 C1.67 1.99 1.34 2.98 1 4 C-1.5625 5.1875 -1.5625 5.1875 -4 6 C-4.33 4.68 -4.66 3.36 -5 2 C-2.625 0.9375 -2.625 0.9375 0 0 Z " fill="#F1EEEF" transform="translate(167,207)"/>
<path d="M0 0 C0.33 1.32 0.66 2.64 1 4 C1.66 4 2.32 4 3 4 C3 4.99 3 5.98 3 7 C2.34 7 1.68 7 1 7 C1 7.66 1 8.32 1 9 C0.34 9 -0.32 9 -1 9 C-0.67 6.03 -0.34 3.06 0 0 Z " fill="#EEEAEB" transform="translate(122,167)"/>
<path d="M0 0 C0.66 0.99 1.32 1.98 2 3 C1.34 4.32 0.68 5.64 0 7 C-0.99 7 -1.98 7 -3 7 C-2.38722388 4.03824877 -1.74627478 2.61941217 0 0 Z " fill="#E0DCDD" transform="translate(236,158)"/>
<path d="M0 0 C0.99 0.33 1.98 0.66 3 1 C2.01 2.485 2.01 2.485 1 4 C0.34 4 -0.32 4 -1 4 C-1 4.66 -1 5.32 -1 6 C-1.66 6 -2.32 6 -3 6 C-3 4.68 -3 3.36 -3 2 C-2.01 1.34 -1.02 0.68 0 0 Z " fill="#E8E6E8" transform="translate(198,137)"/>
<path d="M0 0 C0.33 0 0.66 0 1 0 C1.33 2.64 1.66 5.28 2 8 C1.01 8.33 0.02 8.66 -1 9 C-1.33 9.66 -1.66 10.32 -2 11 C-1.34 7.37 -0.68 3.74 0 0 Z " fill="#DEDADA" transform="translate(141,78)"/>
<path d="M0 0 C0.598125 0.350625 1.19625 0.70125 1.8125 1.0625 C1.4825 2.0525 1.1525 3.0425 0.8125 4.0625 C0.1525 3.4025 -0.5075 2.7425 -1.1875 2.0625 C-2.5075 2.0625 -3.8275 2.0625 -5.1875 2.0625 C-5.1875 1.4025 -5.1875 0.7425 -5.1875 0.0625 C-2.1875 -0.9375 -2.1875 -0.9375 0 0 Z " fill="#D4D0CF" transform="translate(251.1875,334.9375)"/>
<path d="M0 0 C2.31 0 4.62 0 7 0 C6.67 1.32 6.34 2.64 6 4 C5.01 3.34 4.02 2.68 3 2 C2.01 2.33 1.02 2.66 0 3 C0 2.01 0 1.02 0 0 Z " fill="#A79E9F" transform="translate(303,329)"/>
<path d="M0 0 C1.98 0 3.96 0 6 0 C5.01 1.485 5.01 1.485 4 3 C3.36707617 5.11280345 3.36707617 5.11280345 3 7 C3 6.01 3 5.02 3 4 C2.34 3.67 1.68 3.34 1 3 C0.67 2.01 0.34 1.02 0 0 Z " fill="#DCDADB" transform="translate(221,305)"/>
<path d="M0 0 C1.32 0.66 2.64 1.32 4 2 C3.34 3.32 2.68 4.64 2 6 C1.01 5.01 0.02 4.02 -1 3 C-0.67 2.01 -0.34 1.02 0 0 Z " fill="#F0EEED" transform="translate(180,298)"/>
<path d="M0 0 C0.33 0.66 0.66 1.32 1 2 C2.66500443 2.34153937 4.33178677 2.67449498 6 3 C6.66 3.66 7.32 4.32 8 5 C2.46153846 5.36923077 2.46153846 5.36923077 0.125 3.5 C-0.24625 3.005 -0.6175 2.51 -1 2 C-0.67 1.34 -0.34 0.68 0 0 Z " fill="#EEEBEB" transform="translate(247,347)"/>
<path d="M0 0 C1.98 0.99 3.96 1.98 6 3 C6 3.99 6 4.98 6 6 C3.5625 5.25 3.5625 5.25 1 4 C0.1875 1.875 0.1875 1.875 0 0 Z " fill="#EEECEB" transform="translate(215,335)"/>
<path d="M0 0 C0.66 0 1.32 0 2 0 C2.33 1.32 2.66 2.64 3 4 C1.824375 4.2165625 1.824375 4.2165625 0.625 4.4375 C-1.96421018 4.87798925 -1.96421018 4.87798925 -4 6 C-2.84826645 3.53199953 -1.95216435 1.95216435 0 0 Z " fill="#FEFBFB" transform="translate(301,329)"/>
<path d="M0 0 C0.66 0 1.32 0 2 0 C2 2.97 2 5.94 2 9 C1.67 8.01 1.34 7.02 1 6 C0.34 6 -0.32 6 -1 6 C-1.042721 4.33388095 -1.04063832 2.66617115 -1 1 C-0.67 0.67 -0.34 0.34 0 0 Z " fill="#CCCACB" transform="translate(144,299)"/>
<path d="M0 0 C-2.46278801 2.46278801 -4.70676982 2.99771255 -8 4 C-8.33 2.68 -8.66 1.36 -9 0 C-2.25 -1.125 -2.25 -1.125 0 0 Z " fill="#D9D5D5" transform="translate(193,211)"/>
<path d="M0 0 C1.125 1.75 1.125 1.75 2 4 C1.03284133 6.65968633 -0.41948242 8.62922362 -2 11 C-1 3.57142857 -1 3.57142857 0 0 Z " fill="#E3E1E0" transform="translate(136,97)"/>
<path d="M0 0 C4.875 3.625 4.875 3.625 6 7 C5.34 7 4.68 7 4 7 C0 2.52941176 0 2.52941176 0 0 Z " fill="#BFBFBF" transform="translate(233,313)"/>
<path d="M0 0 C0.66 0 1.32 0 2 0 C1.67 0.66 1.34 1.32 1 2 C0.67 1.34 0.34 0.68 0 0 Z " fill="#ADADAD" transform="translate(229,309)"/>
<path d="M0 0 C0.66 0.66 1.32 1.32 2 2 C1.34 2 0.68 2 0 2 C0 1.34 0 0.68 0 0 Z " fill="#B7B7B7" transform="translate(227,306)"/>
<path d="M0 0 C0.66 0.66 1.32 1.32 2 2 C1.34 2 0.68 2 0 2 C0 1.34 0 0.68 0 0 Z " fill="#B2B2B2" transform="translate(220,297)"/>
<path d="" fill="#AAAAAA" transform="translate(0,0)"/>
<path d="" fill="#FF80FF" transform="translate(0,0)"/>
<path d="" fill="#BFBFBF" transform="translate(0,0)"/>
<path d="" fill="#AAAAAA" transform="translate(0,0)"/>
<path d="" fill="#FFFFFF" transform="translate(0,0)"/>
<path d="" fill="#B6B6B6" transform="translate(0,0)"/>
<path d="" fill="#BFBFBF" transform="translate(0,0)"/>
<path d="" fill="#B6B2B2" transform="translate(0,0)"/>
</svg>
